<svg width="486" height="486" viewBox="0 0 486 486" fill="none" xmlns="http://www.w3.org/2000/svg">
<g clip-path="url(#clip0_60_2)">
<path d="M242.607 0C108.629 0 0.000976562 108.628 0.000976562 242.606C0.000976562 376.582 108.629 485.212 242.607 485.212C376.585 485.212 485.211 376.581 485.211 242.606C485.212 108.628 376.585 0 242.607 0ZM257.771 454.116V424.559H227.444V454.116C122.519 446.658 38.561 362.697 31.098 257.772H60.652V227.445H31.098C38.561 122.517 122.519 38.559 227.444 31.096V60.65H257.771V31.097C362.697 38.559 446.653 122.518 454.115 227.446H424.563V257.773H454.115C446.652 362.697 362.696 446.658 257.771 454.116ZM354.226 178.163C356.298 181.778 355.056 186.429 351.444 188.531L271.352 234.758C272.043 237.335 272.934 239.824 272.934 242.606C272.934 259.368 259.353 272.93 242.608 272.93C225.858 272.93 212.281 259.368 212.281 242.606L129.982 195.103C122.725 190.9 120.239 181.629 124.428 174.374C128.602 167.089 137.887 164.603 145.143 168.809L227.918 216.607C232.329 214.12 237.157 212.283 242.608 212.283C251.079 212.283 258.7 215.777 264.212 221.405L343.86 175.381C347.416 173.277 352.064 174.521 354.226 178.163Z" fill="#B7B7B7"/>
</g>
<defs>
<clipPath id="clip0_60_2">
<rect width="485.213" height="485.212" fill="white"/>
</clipPath>
</defs>
</svg>
